<svg id="SvgjsSvg1037" width="288" height="288" xmlns="http://www.w3.org/2000/svg" version="1.1" xmlns:xlink="http://www.w3.org/1999/xlink" xmlns:svgjs="http://svgjs.com/svgjs"><defs id="SvgjsDefs1038"></defs><g id="SvgjsG1039"><svg xmlns="http://www.w3.org/2000/svg" enable-background="new 0 0 508 508" viewBox="0 0 508 508" width="288" height="288"><circle cx="253.55" cy="201.7" r="201.7" fill="#c0c0c0" class="colorffd15c svgShape"></circle><path fill="#c0c0c0" d="M90.15 319.7L20.75 440l81-4.3 36.8 72.3 64.2-111.3C156.75 384.8 117.25 357.1 90.15 319.7zM417.35 319.1c-26.9 37.5-66.4 65.3-112.3 77.4l64.4 111.5 36.8-72.3 81 4.3L417.35 319.1z" class="color40596b svgShape"></path><circle cx="253.55" cy="201.7" r="146.2" fill="#f8b64c" class="colorf8b64c svgShape"></circle><path fill="#ffffff" d="M353.75,185.9c4.5-4.4,2-12.1-4.2-13l-57.7-8.4c-2.5-0.4-4.6-1.9-5.7-4.2l-25.8-52.3
	c-2.8-5.7-10.9-5.7-13.7,0l-25.7,52.3c-1.1,2.2-3.3,3.8-5.7,4.2l-57.7,8.4c-6.2,0.9-8.7,8.6-4.2,13l41.7,40.7
	c1.8,1.8,2.6,4.3,2.2,6.7l-9.8,57.4c-1.1,6.2,5.5,11,11.1,8l51.6-27.1c2.2-1.2,4.9-1.2,7.1,0l51.6,27.1c5.6,2.9,12.1-1.8,11.1-8
	l-9.9-57.4c-0.4-2.5,0.4-5,2.2-6.7L353.75,185.9z" class="colorfff svgShape"></path></svg></g></svg>